<?xml version="1.0" encoding="iso-8859-1"?>
<!-- Generator: Adobe Illustrator 19.0.0, SVG Export Plug-In . SVG Version: 6.00 Build 0)  -->
<svg version="1.1" id="Capa_1" xmlns="http://www.w3.org/2000/svg" xmlns:xlink="http://www.w3.org/1999/xlink" x="0px" y="0px"
	 viewBox="0 0 512.001 512.001" style="enable-background:new 0 0 512.001 512.001;" xml:space="preserve">
<g>
	<g>
		<path d="M489.824,270.87c-1.859-27.281-15.416-52.409-37.197-68.943l-47.331-35.93c-3.296-2.502-7.993-1.857-10.494,1.437
			c-2.502,3.294-1.857,7.993,1.436,10.493l47.331,35.93c18.332,13.916,29.745,35.068,31.31,58.03
			c1.565,22.964-6.871,45.468-23.147,61.744l-39.63,39.629c-16.274,16.275-38.777,24.715-61.741,23.146
			c-22.964-1.565-44.115-12.977-58.031-31.31l-2.356-3.104c-0.048-0.063-0.102-0.118-0.151-0.179c0.18-1.816,0.296-3.645,0.296-5.49
			c0-48.117-25.918-90.288-64.529-113.305V198.65c0.082-0.108,0.171-0.207,0.247-0.32c4.172-6.177,8.983-12.005,14.285-17.307
			l11.951-11.871c31.906-29.911,80.022-34.576,117.043-11.331c3.5,2.197,8.127,1.143,10.325-2.361
			c2.2-3.503,1.143-8.126-2.36-10.325c-22.684-14.241-48.968-19.414-74.152-15.984l-44.798-44.797
			c-5.923-5.923-15.014-7.57-22.627-4.101c-9.451,4.307-23.104,12.032-38.591,25.389c-15.358-16.853-25.291-39.637-29.237-49.802
			c7.017-5.785,11.499-14.542,11.499-24.325C179.175,14.138,165.037,0,147.659,0c-17.378,0-31.518,14.138-31.518,31.517
			c0,14.417,9.733,26.595,22.971,30.329c-2.102,15.494-5.703,52.425,0.34,93.534c-22.363,1.23-38.787,5.715-49.121,9.578
			c-7.836,2.93-13.101,10.525-13.101,18.9V193c0,4.136,3.352,7.489,7.489,7.489c4.137,0,7.489-3.353,7.489-7.489v-9.142
			c0-2.16,1.352-4.117,3.366-4.869c8.957-3.349,28.121-8.966,55.835-8.966c26.052,0,46.085,5.744,55.708,9.168
			c2.089,0.743,3.492,2.718,3.492,4.914v15.115c-13.075-4.543-33.784-9.846-59.189-9.846c-10.851,0-21.489,0.84-31.616,2.495
			c-4.082,0.667-6.85,4.518-6.182,8.6c0.666,4.081,4.515,6.848,8.599,6.183c9.332-1.526,19.156-2.299,29.2-2.299
			c26.907,0,47.976,6.446,59.189,10.828v20.164c-16.053-6.969-33.752-10.842-52.342-10.842l-16.951,0.058
			c-0.069,0-0.139,0.001-0.208,0.003c-17.18,0.535-33.907,5.089-48.902,13.089V227.13c0-4.136-3.352-7.489-7.489-7.489
			s-7.489,3.353-7.489,7.489v20.105c-2.416,1.836-4.769,3.765-7.04,5.805c-19.567,17.584-32.308,41.625-35.879,67.695
			l-11.474,83.791c-6.754,49.325,26.103,95.7,74.802,105.577c4.061,0.821,8.007-1.797,8.83-5.851
			c0.822-4.054-1.798-8.007-5.852-8.829c-40.977-8.31-68.624-47.345-62.938-88.865l11.474-83.791
			c6.399-46.724,45.219-81.711,92.325-83.229l16.818-0.057c64.429,0,116.846,52.417,116.846,116.845
			c0,10.923-4.387,21.266-11.878,28.87l-11.952-67.423c-0.723-4.073-4.604-6.789-8.682-6.067c-4.072,0.722-6.788,4.609-6.066,8.682
			l14.068,79.359l0.934,6.809c3.123,22.804-3.766,45.83-18.896,63.174c-15.131,17.345-37.01,27.292-60.024,27.292h-39.384
			c-4.137,0-7.489,3.353-7.489,7.489s3.352,7.49,7.489,7.49h39.384c27.343,0,53.336-11.817,71.311-32.422
			c17.977-20.606,26.159-47.961,22.449-75.054l-0.301-2.188c8.269-5.779,14.735-13.637,18.868-22.617
			c16.412,18.513,39.495,29.939,64.37,31.634c2.153,0.147,4.303,0.22,6.445,0.22c25.01,0,49.098-9.909,66.907-27.719l39.631-39.629
			C481.661,324.888,491.684,298.152,489.824,270.87z M131.121,31.517c0-9.119,7.42-16.538,16.539-16.538s16.538,7.419,16.538,16.538
			s-7.419,16.538-16.538,16.538S131.121,40.636,131.121,31.517z M154.556,155.072c-6.298-40.96-2.305-78.739-0.386-92.589
			c4.606,11.711,15.17,35.187,31.759,53.342c-0.209,0.208-0.414,0.4-0.624,0.61c-14.373,14.373-24.011,28.606-29.838,38.656
			C155.163,155.084,154.86,155.077,154.556,155.072z M212.144,165.078c-1.02-0.363-2.148-0.749-3.376-1.151
			c3.585-4.384,7.392-8.616,11.394-12.618c7.099-7.1,14.593-13.5,22.274-19.022c3.357-2.415,4.123-7.095,1.708-10.453
			c-2.415-3.359-7.095-4.121-10.453-1.709c-8.334,5.994-16.45,12.921-24.12,20.592c-5.914,5.914-11.448,12.28-16.488,18.919
			c-6.047-1.357-13.01-2.594-20.734-3.443c5.421-8.426,13.125-18.745,23.549-29.168c19.596-19.597,37.12-29.176,45.821-33.141
			c1.955-0.891,4.297-0.464,5.822,1.063l38.008,38.007c-15.98,4.856-31.022,13.344-43.804,25.353
			c-0.051,0.047-0.101,0.096-0.149,0.145l-12.045,11.963c-1.907,1.908-3.751,3.881-5.538,5.9
			C221.851,171.18,217.61,167.023,212.144,165.078z"/>
	</g>
</g>
<g>
</g>
<g>
</g>
<g>
</g>
<g>
</g>
<g>
</g>
<g>
</g>
<g>
</g>
<g>
</g>
<g>
</g>
<g>
</g>
<g>
</g>
<g>
</g>
<g>
</g>
<g>
</g>
<g>
</g>
</svg>
