<?xml version="1.0" encoding="iso-8859-1"?>
<!-- Generator: Adobe Illustrator 19.0.0, SVG Export Plug-In . SVG Version: 6.00 Build 0)  -->
<svg xmlns="http://www.w3.org/2000/svg" xmlns:xlink="http://www.w3.org/1999/xlink" version="1.1" id="Layer_1" x="0px" y="0px" viewBox="0 0 512 512" style="enable-background:new 0 0 512 512;" xml:space="preserve" width="512" height="512">
<g id="XMLID_1333_">
	<g id="XMLID_986_">
		<path id="XMLID_1178_" d="M512,248.829c0-26.15-21.274-47.424-47.424-47.424c-1.103,0-2.205,0.039-3.304,0.115    c-8.715-17.17-26.03-28.927-45.525-30.357c-0.568-0.1-1.15-0.162-1.747-0.162h-4.038C408.357,87.464,339.913,20,256,20    S103.643,87.464,102.038,171H98c-0.597,0-1.179,0.062-1.747,0.162c-19.495,1.43-36.81,13.188-45.525,30.357    c-1.099-0.076-2.201-0.115-3.304-0.115C21.274,201.405,0,222.679,0,248.829c0,12.335,4.781,24.018,13.127,32.754    c-3.778,6.92-5.797,14.722-5.797,22.707c0,19.058,11.513,36.154,28.663,43.554c6.077,23.933,27.892,41.295,53.1,41.295    c11.574,0,22.583-3.638,31.679-10.093c8.759,48.54,43.126,89.423,91.011,105.684c1.065,0.362,2.15,0.534,3.216,0.534    c4.166,0,8.054-2.624,9.468-6.788c1.776-5.229-1.024-10.908-6.253-12.684c-47.644-16.179-79.655-60.88-79.655-111.233V246h234.883    v108.559c0,51.243-32.75,96.188-81.496,111.841c-5.259,1.688-8.152,7.32-6.464,12.579c1.362,4.242,5.29,6.945,9.519,6.945    c1.013,0,2.043-0.155,3.06-0.482c27.496-8.829,51.161-25.82,68.437-49.134c12.698-17.137,21.057-36.604,24.754-57.245    c9.092,6.444,20.092,10.077,31.656,10.077c25.209,0,47.023-17.362,53.1-41.295c17.15-7.399,28.663-24.496,28.663-43.554    c0-7.984-2.02-15.787-5.797-22.707C507.219,272.848,512,261.165,512,248.829z M108,226v-35h296v35H108z M256,40    c72.885,0,132.36,58.493,133.962,131h-21.018c-1.166-44.609-28.217-84.19-69.611-101.39c-5.102-2.119-10.953,0.297-13.072,5.397    c-2.119,5.1,0.297,10.953,5.397,13.072c33.907,14.09,56.127,46.422,57.286,82.921H122.038C123.64,98.493,183.115,40,256,40z     M118.559,352.803c-6.346,10.129-17.425,16.335-29.466,16.335c-17.353,0-32.171-12.951-34.47-30.125    c-0.531-3.967-3.376-7.236-7.233-8.308C35.579,327.422,27.33,316.56,27.33,304.29c0-6.578,2.373-12.943,6.681-17.922    c1.869-2.16,2.725-5.016,2.352-7.848s-1.938-5.369-4.302-6.972C24.509,266.427,20,257.934,20,248.829    c0-15.122,12.303-27.424,27.424-27.424c2.358,0,4.706,0.302,6.978,0.897c5.138,1.345,10.431-1.559,12.056-6.615    C69.836,205.17,77.95,196.969,88,193.226V236c0,5.523,4.477,10,10,10h20.559V352.803z M479.94,271.548    c-2.363,1.603-3.929,4.14-4.302,6.972s0.483,5.687,2.352,7.847c4.308,4.98,6.681,11.345,6.681,17.923    c0,12.27-8.249,23.132-20.06,26.416c-3.857,1.072-6.703,4.341-7.233,8.309c-2.298,17.174-17.117,30.125-34.47,30.125    c-12.042,0-23.121-6.207-29.466-16.337V246H414c5.523,0,10-4.477,10-10v-42.774c10.05,3.742,18.164,11.944,21.542,22.461    c1.625,5.056,6.918,7.96,12.055,6.615c2.272-0.595,4.621-0.897,6.979-0.897c15.122,0,27.424,12.303,27.424,27.424    C492,257.934,487.492,266.427,479.94,271.548z"/>
		<path id="XMLID_1188_" d="M255,360.929c20.953,0,38-17.047,38-38s-17.047-38-38-38s-38,17.047-38,38S234.047,360.929,255,360.929z     M255,304.929c9.925,0,18,8.075,18,18s-8.075,18-18,18s-18-8.075-18-18S245.075,304.929,255,304.929z"/>
		<path id="XMLID_1264_" d="M255,452c40.375,0,75.917-25.809,88.443-64.223c2.951-9.05,1.419-18.683-4.203-26.429    C333.629,353.616,324.583,349,315.043,349h-0.786c-12.638,0-23.866,8.203-27.939,20.413C281.812,382.923,269.226,392,255,392    s-26.812-9.077-31.318-22.588C219.609,357.203,208.381,349,195.743,349h-0.786c-9.541,0-18.586,4.616-24.198,12.348    c-5.622,7.746-7.154,17.379-4.203,26.429C179.083,426.191,214.625,452,255,452z M186.945,373.095    c1.889-2.603,4.809-4.095,8.012-4.095h0.786c4.018,0,7.622,2.709,8.966,6.741C211.944,397.429,232.154,412,255,412    s43.056-14.571,50.291-36.259c1.345-4.032,4.948-6.741,8.966-6.741h0.786c3.203,0,6.123,1.493,8.012,4.095    c1.815,2.501,2.316,5.593,1.374,8.482C314.594,411.737,286.693,432,255,432s-59.594-20.263-69.429-50.423    C184.629,378.688,185.13,375.597,186.945,373.095z"/>
		<path id="XMLID_1268_" d="M182.674,258.069c-5.523,0-10,4.477-10,10v2h-2c-5.523,0-10,4.477-10,10s4.477,10,10,10h2v2    c0,5.523,4.477,10,10,10s10-4.477,10-10v-2h2c5.523,0,10-4.477,10-10s-4.477-10-10-10h-2v-2    C192.674,262.546,188.197,258.069,182.674,258.069z"/>
		<path id="XMLID_1272_" d="M322.902,258.069c-5.523,0-10,4.477-10,10v2h-2c-5.523,0-10,4.477-10,10s4.477,10,10,10h2v2    c0,5.523,4.477,10,10,10s10-4.477,10-10v-2h2c5.523,0,10-4.477,10-10s-4.477-10-10-10h-2v-2    C332.902,262.546,328.425,258.069,322.902,258.069z"/>
		<path id="XMLID_1273_" d="M256,61c-2.63,0-5.21,1.07-7.07,2.93C247.07,65.79,246,68.37,246,71c0,2.63,1.07,5.21,2.93,7.07    c1.86,1.86,4.44,2.93,7.07,2.93c2.63,0,5.21-1.07,7.07-2.93S266,73.63,266,71c0-2.63-1.07-5.21-2.93-7.07    C261.21,62.07,258.63,61,256,61z"/>
		<path id="XMLID_1274_" d="M256,472c-2.63,0-5.21,1.07-7.07,2.93c-1.86,1.86-2.93,4.44-2.93,7.07c0,2.63,1.07,5.21,2.93,7.07    c1.86,1.86,4.44,2.93,7.07,2.93c2.63,0,5.21-1.07,7.07-2.93S266,484.63,266,482c0-2.63-1.07-5.21-2.93-7.07    C261.21,473.07,258.63,472,256,472z"/>
	</g>
</g>















</svg>
