<?xml version="1.0" encoding="iso-8859-1"?>
<!-- Generator: Adobe Illustrator 19.0.0, SVG Export Plug-In . SVG Version: 6.00 Build 0)  -->
<svg xmlns="http://www.w3.org/2000/svg" xmlns:xlink="http://www.w3.org/1999/xlink" version="1.1" id="Layer_1" x="0px" y="0px" viewBox="0 0 512 512" style="enable-background:new 0 0 512 512;" xml:space="preserve" width="512" height="512">
<g>
	<path d="M499.873,60.859L443.408,4.394c-5.857-5.858-15.355-5.858-21.213,0l-339.54,339.54c-2.813,2.813-4.394,6.629-4.394,10.608   c0,3.979,1.581,7.794,4.396,10.607l1.426,1.425c17.846,17.847,41.573,27.675,66.812,27.675c25.239,0,48.967-9.829,66.813-27.675   l135.877-135.877c5.208,3.357,11.29,5.16,17.503,5.16c1.84,0,3.692-0.158,5.535-0.479c10.342-1.804,19.186-8.552,23.657-18.051   c0.656-1.394,1.094-2.879,1.297-4.406l3.979-29.834l56.927-56.927c1.507-0.117,3.836-0.098,5.513-0.085   c9.441,0.069,18.206-1.333,26.18-6.791c8.199-5.612,14.156-14.39,16.097-24.14C512.754,82.67,508.867,69.852,499.873,60.859z    M196.494,345.361c-12.18,12.18-28.374,18.888-45.6,18.888c-12.813,0-25.056-3.712-35.501-10.628l180.037-180.037l36.421,36.42   L196.494,345.361z M480.795,89.276c-0.374,1.796-1.356,3.493-2.89,4.76c-2.792,2.305-6.266,2.068-9.666,2.04   c-7.578-0.063-17.953-0.145-25.342,7.244l-62.145,62.145c-2.329,2.329-3.826,5.359-4.262,8.624l-4.191,31.43   c-0.242,0.149-0.52,0.251-0.831,0.306c-0.771,0.133-1.447-0.078-2.004-0.634c0,0-5.792-5.792-5.793-5.793l-47.027-47.027   L432.802,36.214c0,0,45.858,45.858,45.859,45.858C480.656,84.067,481.317,86.769,480.795,89.276z"/>
	<path d="M349.529,135.991l-1.207,1.207c-5.858,5.858-5.858,15.355,0,21.213c2.929,2.929,6.768,4.394,10.606,4.394   s7.678-1.464,10.606-4.394l1.207-1.207c5.858-5.858,5.858-15.355,0-21.213C364.884,130.133,355.386,130.133,349.529,135.991z"/>
	<path d="M102.781,431.884l-34.994-53.471c-2.771-4.234-7.49-6.786-12.551-6.786s-9.78,2.552-12.551,6.786L7.691,431.884   c-0.31,0.473-0.592,0.962-0.846,1.467c-8.537,16.952-7.691,36.719,2.263,52.878C19.049,502.366,36.293,512,55.236,512   c18.941,0,36.186-9.634,46.127-25.771c9.954-16.159,10.801-35.927,2.265-52.878C103.372,432.846,103.09,432.357,102.781,431.884z    M75.82,470.494C71.316,477.806,63.813,482,55.236,482s-16.08-4.194-20.585-11.507c-4.387-7.12-4.862-15.451-1.342-22.971   l21.927-33.503l21.926,33.503C80.683,455.043,80.206,463.374,75.82,470.494z"/>
</g>















</svg>
