<?xml version="1.0" encoding="iso-8859-1"?>
<!-- Generator: Adobe Illustrator 18.1.1, SVG Export Plug-In . SVG Version: 6.00 Build 0)  -->
<svg version="1.1" id="Capa_1" xmlns="http://www.w3.org/2000/svg" xmlns:xlink="http://www.w3.org/1999/xlink" x="0px" y="0px"
	 viewBox="0 0 204.36 204.36" style="enable-background:new 0 0 204.36 204.36;" xml:space="preserve">
<g>
	<g>
		<path style="fill:#010002;" d="M41.966,88.933c8.815,0,15.983-7.172,15.983-15.987S50.78,56.963,41.966,56.963
			s-15.983,7.168-15.983,15.983S33.151,88.933,41.966,88.933z M41.966,60.237c7.007,0,12.716,5.698,12.716,12.709
			c0,7.011-5.708,12.712-12.716,12.712s-12.709-5.705-12.709-12.712S34.958,60.237,41.966,60.237z"/>
		<path style="fill:#010002;" d="M108.747,88.933c8.815,0,15.983-7.172,15.983-15.987s-7.168-15.983-15.983-15.983
			c-8.822,0-15.99,7.168-15.99,15.983S99.925,88.933,108.747,88.933z M108.747,60.237c7.007,0,12.708,5.698,12.708,12.709
			c0,7.011-5.701,12.712-12.708,12.712c-7.011,0-12.719-5.705-12.719-12.712S101.736,60.237,108.747,60.237z"/>
		<path style="fill:#010002;" d="M173.138,98.585h-19.612V70.487h-10.611c-0.855-18.134-15.661-32.281-33.877-32.281
			c-14.691,0-27.779,9.598-32.271,23.492c-4.499-13.893-17.59-23.492-32.281-23.492c-18.198,0-33.015,14.147-33.877,32.281H0v95.666
			h153.526v-20.904h19.612l31.222,9.681V88.908L173.138,98.585z M175.024,142.408V101.43l26.072-8.074v57.136L175.024,142.408z
			 M171.745,101.856v40.119h-18.223v-40.119H171.745z M44.485,41.484c16.899,0,30.642,13.743,30.642,30.639v0.397h3.271v-0.397
			c0-16.892,13.743-30.639,30.639-30.639s30.646,13.743,30.646,30.639v1.639h10.576v89.121H3.275V73.758H13.85v-1.639
			C13.85,55.227,27.589,41.484,44.485,41.484z"/>
	</g>
</g>
<g>
</g>
<g>
</g>
<g>
</g>
<g>
</g>
<g>
</g>
<g>
</g>
<g>
</g>
<g>
</g>
<g>
</g>
<g>
</g>
<g>
</g>
<g>
</g>
<g>
</g>
<g>
</g>
<g>
</g>
</svg>
