<?xml version="1.0" encoding="iso-8859-1"?>
<!-- Generator: Adobe Illustrator 19.0.0, SVG Export Plug-In . SVG Version: 6.00 Build 0)  -->
<svg xmlns="http://www.w3.org/2000/svg" xmlns:xlink="http://www.w3.org/1999/xlink" version="1.1" id="Layer_1" x="0px" y="0px" viewBox="0 0 512.037 512.037" style="enable-background:new 0 0 512.037 512.037;" xml:space="preserve" width="512" height="512">
<g id="XMLID_1846_">
	<g id="XMLID_1475_">
		<path id="XMLID_1476_" d="M202.766,269.689c-3.743,3.743-8.72,5.805-14.014,5.805s-10.271-2.062-14.014-5.806    c-3.905-3.905-10.237-3.905-14.143,0c-3.905,3.905-3.905,10.237,0,14.143c7.521,7.521,17.521,11.663,28.157,11.663    c10.636,0,20.636-4.142,28.157-11.664c3.905-3.905,3.905-10.237,0-14.142S206.671,265.784,202.766,269.689z"/>
		<path id="XMLID_1477_" d="M79.248,295.494c10.636,0,20.635-4.142,28.157-11.663c3.905-3.905,3.905-10.237,0-14.143    c-3.905-3.905-10.237-3.905-14.143,0c-3.743,3.744-8.72,5.806-14.014,5.806s-10.271-2.062-14.014-5.805    c-3.905-3.905-10.237-3.905-14.142,0c-3.905,3.905-3.906,10.237,0,14.142C58.612,291.352,68.612,295.494,79.248,295.494z"/>
		<path id="XMLID_1910_" d="M138.097,344.206c-16.952-1.212-33.116,4.47-45.503,16.003c-12.216,11.373-19.222,27.465-19.222,44.148    l0,0.243c0.028,7.178,4.41,13.458,11.162,15.998c2.017,0.759,4.095,1.127,6.144,1.127c4.81,0,9.461-2.029,12.794-5.802    c7.653-8.664,18.664-13.632,30.21-13.632c11.543,0,22.553,4.967,30.206,13.627c4.754,5.38,12.183,7.213,18.923,4.671    c6.775-2.555,11.164-8.871,11.181-16.093c0.003-1.676-0.063-3.374-0.196-5.044C191.446,370.061,167.501,346.31,138.097,344.206z     M133.681,382.292c-14.669,0-28.76,5.358-39.687,14.907c1.509-8.533,5.72-16.294,12.227-22.352    c7.544-7.023,17.193-10.8,27.44-10.8c0.998,0,2.001,0.036,3.008,0.108c18.329,1.311,33.481,15.222,36.688,33.036    C162.433,387.646,148.346,382.292,133.681,382.292z"/>
		<path id="XMLID_1914_" d="M73.234,316.615c-3.905-3.905-10.237-3.905-14.143,0l-8,8c-3.905,3.905-3.905,10.237,0,14.143    c1.953,1.953,4.512,2.929,7.071,2.929s5.119-0.976,7.071-2.929l8-8C77.139,326.852,77.139,320.52,73.234,316.615z"/>
		<path id="XMLID_1920_" d="M201.429,315.282l-8.167,8.167c-3.905,3.905-3.905,10.237,0,14.143c1.953,1.953,4.512,2.929,7.071,2.929    s5.119-0.976,7.071-2.929l8.167-8.167c3.905-3.905,3.905-10.237,0-14.143C211.666,311.376,205.334,311.376,201.429,315.282z"/>
		<path id="XMLID_1922_" d="M272.584,231.243c0.867,0.232,1.737,0.343,2.594,0.343c4.415,0,8.456-2.947,9.653-7.415    c2.829-10.556,13.72-16.84,24.274-14.014c5.332,1.428,10.818-1.737,12.247-7.071c1.43-5.334-1.736-10.818-7.071-12.247    c-10.273-2.753-21.004-1.34-30.215,3.978c-9.211,5.318-15.8,13.905-18.553,24.179C264.083,224.331,267.25,229.814,272.584,231.243    z"/>
		<path id="XMLID_1923_" d="M409.115,136.087c-10.275-2.753-21.005-1.34-30.216,3.978c-9.211,5.318-15.8,13.905-18.553,24.179    c-1.43,5.334,1.736,10.818,7.071,12.247c0.867,0.232,1.737,0.343,2.594,0.343c4.415,0,8.456-2.947,9.653-7.415    c1.37-5.113,4.649-9.387,9.234-12.034c4.584-2.647,9.927-3.35,15.039-1.98c5.334,1.429,10.818-1.736,12.248-7.071    S414.45,137.517,409.115,136.087z"/>
		<path id="XMLID_1954_" d="M332.234,267.642c-4.589,5.6-5.232,13.264-1.637,19.524c0.831,1.448,1.737,2.885,2.693,4.272    c11.493,16.68,30.478,25.958,49.835,25.957c8.822,0,17.723-1.928,26.024-5.96c15.291-7.428,26.444-20.43,31.406-36.611    c4.893-15.958,2.914-33.396-5.419-47.83l-0.131-0.225c-3.614-6.203-10.549-9.447-17.666-8.274    c-7.117,1.177-12.637,6.483-14.063,13.518c-2.296,11.33-9.348,21.138-19.347,26.911c-9.997,5.771-22.015,6.975-32.973,3.301    C344.151,259.942,336.801,262.068,332.234,267.642z M393.931,276.244c12.704-7.334,22.228-19.02,26.916-32.753    c2.959,8.144,3.193,16.971,0.587,25.47c-3.315,10.814-10.782,19.509-21.022,24.484c-16.53,8.029-36.608,3.558-48.292-10.265    C366.353,285.981,381.231,283.577,393.931,276.244z"/>
		<path id="XMLID_2789_" d="M494.027,180.976l-86-148.957c-2.762-4.784-8.877-6.422-13.66-3.66l-71.213,41.115    c-4.783,2.761-6.422,8.877-3.66,13.66c2.761,4.783,8.876,6.42,13.66,3.66l62.553-36.115l81,140.296    c31.43,54.438,12.71,124.297-41.728,155.727c-54.438,31.43-124.296,12.711-155.727-41.727l-81-140.296L263,127.297    c4.783-2.761,6.422-8.877,3.66-13.66c-2.761-4.783-8.878-6.422-13.66-3.66l-73.408,42.382c-4.783,2.761-6.422,8.877-3.66,13.66    l1.732,3H10c-5.523,0-10,4.477-10,10v172c0,73.888,60.112,134,134,134s134-60.112,134-134v-26.514    c25.668,36.943,67.41,57.445,110.204,57.444c22.717,0,45.728-5.774,66.775-17.926c30.997-17.896,53.17-46.792,62.434-81.365    C516.677,248.084,511.923,211.974,494.027,180.976z M134,465.02c-62.86,0-114-51.14-114-114v-122h63.275c5.523,0,10-4.477,10-10    s-4.477-10-10-10H20v-20h169.211L248,290.845v60.175C248,413.879,196.86,465.02,134,465.02z"/>
		<path id="XMLID_2790_" d="M303.214,240.011c-5.337-1.432-10.818,1.737-12.248,7.071l-2.928,10.928    c-1.43,5.335,1.736,10.818,7.071,12.248c0.867,0.232,1.738,0.343,2.595,0.343c4.415,0,8.456-2.947,9.653-7.414l2.928-10.928    C311.714,246.924,308.548,241.44,303.214,240.011z"/>
		<path id="XMLID_2791_" d="M413.567,174.759l-2.989,11.156c-1.429,5.335,1.737,10.818,7.071,12.247    c0.867,0.232,1.737,0.343,2.594,0.343c4.415,0,8.456-2.947,9.653-7.415l2.989-11.156c1.429-5.335-1.737-10.818-7.071-12.247    C420.478,166.255,414.997,169.424,413.567,174.759z"/>
		<path id="XMLID_2792_" d="M123.27,229.02c2.64,0,5.22-1.07,7.08-2.93c1.86-1.86,2.92-4.44,2.92-7.07c0-2.63-1.06-5.21-2.92-7.07    c-1.86-1.86-4.44-2.93-7.08-2.93c-2.63,0-5.21,1.07-7.07,2.93c-1.86,1.86-2.93,4.44-2.93,7.07c0,2.63,1.07,5.21,2.93,7.07    C118.07,227.949,120.64,229.02,123.27,229.02z"/>
		<path id="XMLID_2793_" d="M293.43,108.02c2.64,0,5.21-1.07,7.07-2.93c1.87-1.86,2.93-4.44,2.93-7.07c0-2.63-1.06-5.21-2.93-7.07    c-1.86-1.86-4.43-2.93-7.07-2.93c-2.63,0-5.21,1.07-7.07,2.93c-1.86,1.86-2.93,4.44-2.93,7.07c0,2.63,1.07,5.21,2.93,7.07    S290.8,108.02,293.43,108.02z"/>
	</g>
</g>















</svg>
