<svg height="496pt" viewBox="-1 0 495 496" width="496pt" xmlns="http://www.w3.org/2000/svg"><path d="m489.636719 329.191406c-26.730469-16.480468-54.464844-25.191406-80.191407-25.191406-40.824218 0-79.210937 15.894531-108.105468 44.785156l-.710938.710938c-6.769531 6.777344-15.777344 10.503906-25.351562 10.503906h-1.984375c-19.761719 0-35.847657-16.078125-35.847657-35.847656 0-6.503906 1.765626-12.878906 5.109376-18.449219l16.976562-28.304687c11.214844-8.03125 19.242188-19.390626 23.144531-32.285157 10.320313 9.679688 23.71875 15.710938 38.25 16.65625l5.316407.34375 2.371093-4.785156c6.445313-13.039063 7.917969-27.65625 4.703125-41.433594 4.609375 1.074219 9.296875 1.714844 14.007813 1.714844 9.375 0 18.761719-2.136719 27.449219-6.433594l4.78125-2.359375-.34375-5.328125c-.941407-14.527343-6.976563-27.921875-16.65625-38.25 13.546874-4.101562 25.472656-12.6875 33.546874-24.796875l2.957032-4.441406-2.957032-4.441406c-8.074218-12.109375-20-20.695313-33.546874-24.796875 9.671874-10.328125 15.714843-23.722657 16.65625-38.25l.34375-5.328125-3.3125-1.632813 18.328124-30.550781c1.882813-3.121094 2.875-6.703125 2.875-10.878906 0-11.097656-9.023437-20.121094-20.121093-20.121094-4.214844 0-8.257813 1.296875-11.6875 3.742188-33.199219 23.722656-72.328125 36.257812-113.128907 36.257812h-16.632812c-16.632812 0-32.277344 8.855469-40.816406 23.097656l-.480469.78125c-5.957031 9.9375-16.863281 16.113282-28.453125 16.113282h-33.703125c-3.578125-13.785157-16.226563-23.992188-31.65625-23.992188-17.28125 0-31.335937 14.0625-31.335937 31.34375l.007812 32.664062c.007812 13.230469 10.78125 23.992188 24 23.992188h80.007812c4.414063 0 8 3.59375 8 8s-3.585937 8-8 8h-88v8c0 16.359375 9.894532 30.414062 24 36.609375v19.390625h16v-16h16v16h16v-16h18.519532c-3.617188 9.527344-4.800782 19.695312-3.519532 29.6875l-41.855468 41.855469c-23.960938 23.953125-37.144532 55.792969-37.144532 89.664062 0 7.679688.734376 15.304688 2.09375 22.792969h-5.816406l-32.3125-48.472656c-9.820312-14.726563-26.261718-23.527344-43.964844-23.527344h-12.945312l5.792969 11.574219c9.910156 19.824219 15.152343 42.027343 15.152343 64.203125v55.320312l29.222657-9.746094c7.671875-2.550781 16.273437-1.398437 23.007812 3.082032l.800781.527344c21.078126 14.054687 44.925782 22.742187 69.824219 25.757812 22.054688 16.527344 48.296875 25.28125 75.941407 25.28125 33.867187 0 65.707031-13.183594 89.65625-37.136719 22.472656-22.480469 52.371093-34.863281 84.160156-34.863281 32.136718 0 62.777344 10.710938 86.28125 30.167969l13.105468 10.832031v-133.464844zm-236.191407-67.207031c-8.890624-7.617187-14.511718-18.328125-15.746093-29.984375h15.746093c5.398438 0 10.703126-.449219 15.863282-1.3125-.929688 12.167969-6.648438 23.390625-15.863282 31.296875zm62.992188-16.878906c-11.953125-2.242188-22.472656-9.152344-29.363281-19.242188 10.027343-3.757812 19.234375-9.160156 27.355469-15.863281 5.308593 11.023438 6.054687 23.617188 2.007812 35.105469zm11.046875-48.105469c6.695313-8.121094 12.046875-17.359375 15.816406-27.382812 10.09375 6.886718 17.015625 17.421874 19.246094 29.375-11.453125 4.03125-24.046875 3.304687-35.0625-1.992188zm35.0625-123.992188c-2.238281 11.96875-9.175781 22.511719-19.285156 29.398438-3.761719-10.023438-9.058594-19.300781-15.753907-27.414062 11.015626-5.304688 23.59375-6.023438 35.039063-1.984376zm16.882813 62.992188c-7.898438 9.214844-19.136719 14.878906-31.304688 15.808594.855469-5.144532 1.320312-10.425782 1.320312-15.808594 0-5.398438-.5625-10.65625-1.417968-15.816406 12.199218.914062 23.480468 6.578125 31.402344 15.816406zm-4.488282-119.230469c2.558594-1.816406 6.503906.023438 6.503906 3.878907 0 .75-.203124 1.480468-.585937 2.121093l-19.917969 33.199219c-15.007812-3.394531-30.898437-1.136719-44.554687 6.75l-.664063.386719c-5.453125-4.664063-11.414062-8.730469-17.824218-12.097657 27.546874-6.0625 53.65625-17.542968 77.042968-34.238281zm-153.496094 191.230469v-16h-96c-10.433593 0-19.328124-6.6875-22.632812-16h70.632812c13.230469 0 24-10.769531 24-24s-10.769531-24-24-24h-80.007812c-4.410156 0-7.992188-3.59375-8-8l-.007812-32.664062c0-8.464844 6.878906-15.34375 15.941406-15.34375 8.863281.007812 16.074218 7.183593 16.074218 16.007812v8h8v16h16v-16h16v16h16v-16.617188c14.34375-2.191406 27.285157-10.664062 34.839844-23.246093l.480469-.792969c5.679687-9.457031 16.0625-15.34375 27.109375-15.34375h16.632812c.3125 0 .625-.03125.9375-.039062v.039062c44.109376 0 80 35.886719 80 80s-35.890624 80-80 80h-32v7.359375c-6.785156 11.464844-18.074218 19.328125-30.992187 21.746094-4.289063-12.195313-3.21875-25.632813 3.023437-37.105469zm-175.832031 218.175781-8.167969 2.726563v-33.125c0-19.511719-3.65625-39.050782-10.648437-57.28125 6.960937 2.703125 13.03125 7.503906 17.304687 13.910156l32.292969 48.441406c-3.367187 7.847656-5.589843 16.160156-6.453125 24.648438-7.929687-2.097656-16.433594-1.945313-24.328125.679687zm431.832031 6.039063c-4.601562-2.992188-9.425781-5.628906-14.34375-8.085938 3.902344-4.273437 6.34375-9.898437 6.34375-16.128906 0-13.230469-10.769531-24-24-24v16c4.414063 0 8 3.59375 8 8s-3.585937 8-8 8v.679688c-16.234374-5.648438-33.601562-8.679688-51.386718-8.679688-36.070313 0-69.972656 14.046875-95.480469 39.550781-20.925781 20.929688-48.742187 32.449219-78.335937 32.449219-15.671876 0-30.8125-3.257812-44.789063-9.449219 21.757813-5.277343 37.992187-24.871093 37.992187-48.238281 0-16.65625-8.273437-32.105469-22.128906-41.34375l-5.441406-3.625-8.871094 13.3125 5.441406 3.625c9.390626 6.261719 15 16.742188 15 28.03125 0 18.574219-15.113281 33.6875-33.6875 33.6875-27.867187 0-54.851562-7.992188-78.257812-23.023438.121094-8.550781 1.9375-17.054687 5.207031-24.976562h36.113281c12.457032 0 24.167969 4.847656 32.96875 13.65625l11.3125-11.3125c-11.824218-11.832031-27.546874-18.34375-44.28125-18.34375h-15c-1.558593-7.457031-2.375-15.089844-2.375-22.792969 0-27.910156 10.359376-54.160156 29.070313-74.621093 4.390625 5.6875 11.207031 9.414062 18.929687 9.414062 13.230469 0 24-10.769531 24-24h-16c0 4.40625-3.585937 8-8 8-3.433593 0-6.3125-2.199219-7.441406-5.238281l27.433594-27.433594c.292969.664063.519531 1.34375.839844 2l2.367187 4.785156 5.320313-.34375c14.527344-.9375 27.925781-6.976562 38.246094-16.648437 3.378906 11.144531 9.761718 21.199218 18.695312 28.902344l-14.070312 23.449218c-4.839844 8.039063-7.390626 17.269532-7.390626 26.679688 0 1.296875.101563 2.574218.191407 3.847656h-.191407c0 4.40625-3.585937 8-8 8-4.417968 0-8-3.59375-8-8h-16c0 13.230469 10.765626 24 24 24 5.09375 0 9.808594-1.625 13.695313-4.34375 8.589844 16.800781 26.03125 28.34375 46.152344 28.34375h1.984375c13.839844 0 26.863281-5.390625 36.679687-15.199219l.710938-.710937c25.855469-25.859375 60.230469-40.089844 96.777343-40.089844 1.957032 0 3.941407.128906 5.933594.238281 3.570313.890625 6.066406 4.066407 6.066406 7.761719 0 4.40625-3.585937 8-8 8v16c13.230469 0 24-10.769531 24-24 0-1.480469-.152343-2.929688-.410156-4.34375 13.3125 3.367188 26.929688 8.992188 40.410156 16.871094zm0 0"/><path d="m285.445312 136c0-13.230469-10.769531-24-24-24v16c4.414063 0 8 3.59375 8 8s-3.585937 8-8 8h-56v16h56c13.230469 0 24-10.769531 24-24zm0 0"/><path d="m245.445312 112c11.117188 0 21.238282-5.335938 27.535157-14.175781 16.726562 5.007812 28.464843 20.265625 28.464843 38.175781 0 22.054688-17.945312 40-40 40h-32v16h32c30.871094 0 56-25.121094 56-56 0-25.953125-17.539062-48.097656-42.289062-54.289062-5.945312-10.933594-17.191406-17.710938-29.710938-17.710938-12.921874 0-24.539062 7.175781-30.3125 18.734375l-2.632812 5.265625 2.632812 5.265625c5.773438 11.558594 17.390626 18.734375 30.3125 18.734375zm0-32c6.085938 0 11.621094 3.015625 14.910157 8-3.289063 4.984375-8.832031 8-14.910157 8-6.082031 0-11.625-3.015625-14.914062-8 3.289062-4.984375 8.824219-8 14.914062-8zm0 0"/><path d="m229.445312 408v16c4.414063 0 8 3.59375 8 8s-3.585937 8-8 8v16c13.230469 0 24-10.769531 24-24s-10.769531-24-24-24zm0 0"/><path d="m301.445312 376v16c4.414063 0 8 3.59375 8 8s-3.585937 8-8 8v16c13.230469 0 24-10.769531 24-24s-10.769531-24-24-24zm0 0"/><path d="m373.445312 344v16c4.414063 0 8 3.59375 8 8s-3.585937 8-8 8v16c13.230469 0 24-10.769531 24-24s-10.769531-24-24-24zm0 0"/><path d="m149.445312 360c-4.417968 0-8-3.59375-8-8h-16c0 13.230469 10.765626 24 24 24 13.230469 0 24-10.769531 24-24h-16c0 4.40625-3.585937 8-8 8zm0 0"/></svg>