<svg height="512pt" viewBox="-52 0 512 512" width="512pt" xmlns="http://www.w3.org/2000/svg"><path d="m176.289062 267.558594h55.992188v15h-55.992188zm0 0"/><path d="m327.851562 267.558594 23.332032-66.746094h-101.402344v71.574219l-45.492188 55.75-45.5-55.757813v-71.566406h-101.398437l23.332031 66.746094h-32.855468l-46.742188 46.742187v197.699219h406.328125v-197.699219l-46.742187-46.742187zm-63.070312-51.746094h65.269531l-18.089843 51.746094h-47.179688zm-186.257812 0h65.265624v51.746094h-47.175781zm313.929687 281.1875h-52.515625v-127.050781h-15v127.050781h-241.292969v-127.050781h-15v127.050781h-52.519531v-176.484375l37.957031-37.957031h93.65625l49.050781 60.113281v141.828125h15v-141.828125l49.054688-60.113281h93.65625l37.953125 37.957031zm0 0"/><path d="m103.207031 382.277344h66.664063v15h-66.664063zm0 0"/><path d="m238.707031 382.277344h66.664063v15h-66.664063zm0 0"/><path d="m101.414062 188.3125h15v-35.828125l87.871094 14.125 87.882813-14.125v35.828125h15v-38.238281l101.410156-16.304688-58.574219-34.511719h-38.066406l-22.667969-99.257812h-56.660156l-28.320313 13.371094-28.316406-13.371094h-56.664062l-22.664063 99.253906h-38.066406l-58.578125 34.515625 101.414062 16.300781zm29.855469-173.3125h41.339844l31.679687 14.960938 31.683594-14.960938h41.335938l19.242187 84.253906h-184.523437zm-68.601562 99.253906h283.242187l19.195313 11.308594-160.820313 25.855469-160.8125-25.855469zm0 0"/><path d="m382.453125 472.480469h-15v-94.71875h15zm0-104.71875h-15v-15h15zm0-25h-15v-15h15zm0 0"/><path d="m279.292969 89.253906h-100.007813v-15h100.007813zm-110.007813 0h-15v-15h15zm-25 0h-15v-15h15zm0 0"/></svg>