<?xml version="1.0" encoding="iso-8859-1"?>
<!-- Generator: Adobe Illustrator 19.0.0, SVG Export Plug-In . SVG Version: 6.00 Build 0)  -->
<svg xmlns="http://www.w3.org/2000/svg" xmlns:xlink="http://www.w3.org/1999/xlink" version="1.1" id="Layer_1" x="0px" y="0px" viewBox="0 0 512 512" style="enable-background:new 0 0 512 512;" xml:space="preserve" width="512" height="512">
<g>
	<path d="M497,100.125h-29.892v-6.239c0-8.284-6.716-15-15-15H46.761c-7.337,0-13.598,5.308-14.798,12.546l-1.464,8.831   c-1.765-0.73-3.698-1.138-5.727-1.138H15c-8.284,0-15,6.716-15,15s6.716,15,15,15h9.771c0.321,0,0.634-0.028,0.949-0.048   l-9.38,56.573c-3.211,19.37,5.686,38.226,21.511,48.332L13.505,385.634c-1.905,11.872,1.475,23.93,9.273,33.081   c7.8,9.151,19.169,14.399,31.192,14.399h110.144c22.599,0,40.984-18.385,40.984-40.984v-68.653h55.968   c28.65,0,51.959-23.309,51.959-51.96v-30.009h139.083c8.284,0,15-6.716,15-15v-44.267H497c8.284,0,15-6.716,15-15v-52.116   C512,106.841,505.284,100.125,497,100.125z M175.099,226.508V392.13c0,6.057-4.928,10.984-10.984,10.984H53.971   c-4.412,0-7.131-2.418-8.359-3.859c-1.229-1.441-3.185-4.51-2.485-8.867l26.139-162.812c1.199-7.474-3.357-14.671-10.626-16.783   c-8.733-2.537-14.194-11.237-12.702-20.237l0.578-3.483h386.584c1.391,0,2.732-0.204,4.01-0.558v24.993h-247.01   C181.814,211.508,175.099,218.224,175.099,226.508z M437.108,108.886v48.746c-1.278-0.354-2.619-0.558-4.01-0.558H224.83   l3.505-18.743c1.523-8.143-3.844-15.979-11.987-17.501c-8.148-1.526-15.979,3.845-17.501,11.988l-4.536,24.256H175.57l3.504-18.743   c1.522-8.143-3.845-15.979-11.987-17.501c-8.157-1.526-15.979,3.846-17.501,11.988l-4.535,24.256h-18.741l3.504-18.743   c1.522-8.143-3.845-15.979-11.987-17.501c-8.159-1.526-15.979,3.846-17.501,11.988l-4.535,24.256H51.488l7.99-48.188H437.108z    M283.025,271.517c0,12.109-9.851,21.96-21.959,21.96h-55.968v-28.6c5.776,8.429,13.745,15.375,23.296,19.875   c2.066,0.973,4.24,1.434,6.383,1.434c5.627,0,11.022-3.183,13.579-8.611c3.531-7.494,0.317-16.432-7.177-19.962   c-6.908-3.255-12.114-9.136-14.654-16.104h56.5V271.517z M482,152.241h-14.892v-22.116H482V152.241z"/>
</g>















</svg>
