<svg height="512pt" viewBox="0 -107 512.11365 512" width="512pt" xmlns="http://www.w3.org/2000/svg"><path d="m421.640625 142.726562c-1.109375-10.007812-2.074219-20.546874-2.96875-30.933593-3.414063-39.679688-5.335937-55.269531-11.570313-61.5-24.367187-18.769531-51.371093-33.84375-80.136718-44.730469-34.988282-11.65625-61.253906-4.785156-78.066406 20.429688-1.242188 1.847656-2.671876 3.5625-4.265626 5.121093-13.636718-11.203125-30.71875-17.367187-48.367187-17.453125-36.0625 0-58.785156 40.046875-66.097656 115.875-19.613281-8.308594-40.609375-12.878906-61.902344-13.472656-46.933594 0-68.265625 53.074219-68.265625 102.398438 0 28.742187 35.960938 54.347656 82.234375 59.007812.277344.160156.5625.304688.855469.425781 16.054687 4.101563 32.582031 6.0625 49.152344 5.828125 34.90625-.792968 69.59375-5.746094 103.328124-14.761718 1.0625.457031 2.207032.695312 3.363282.699218.246094 0 25.941406.34375 91.820312 16.8125 26.761719 7.136719 54.292969 11.015625 81.988282 11.542969 31.1875 0 55.804687-6.664063 72.789062-19.914063 17.910156-14.457031 27.765625-36.65625 26.46875-59.640624 0-33.953126-32.066406-60.695313-90.359375-75.734376zm-225.375-112c11.765625.0625 23.238281 3.648438 32.941406 10.300782-10.503906 4.152344-21.652343 6.441406-32.941406 6.765625-4.710937 0-8.53125 3.820312-8.53125 8.535156 0 4.710937 3.820313 8.53125 8.53125 8.53125 18.8125-.246094 37.195313-5.640625 53.15625-15.597656 5.382813-3.691407 10.015625-8.375 13.652344-13.796875 12.355469-18.535156 30.941406-22.878906 58.46875-13.707032 26.0625 9.992188 50.644531 23.484376 73.0625 40.109376 2.996093 4.847656 5.328125 31.75 7.03125 51.394531.734375 8.472656 1.527343 17.066406 2.390625 25.421875-11.203125-2.203125-23.3125-4.0625-36.191406-5.523438-18.476563-1.863281-37.140626-.058594-54.917969 5.316406-2.476563-25.667968-5.792969-48.972656-5.828125-49.242187-.671875-4.667969-4.996094-7.90625-9.660156-7.238281-4.667969.667968-7.90625 4.996094-7.238282 9.660156.042969.273438 3.664063 25.789062 6.128906 52.617188-11.0625 4.46875-21.769531 9.78125-32.027343 15.878906-39.644531 3.316406-79.507813 3.148437-119.125-.496094.222656-5.410156.53125-11.089844.957031-17.066406 3.039062-41.761719 13.550781-111.863282 50.140625-111.863282zm8.183594 172.964844c-20.480469.050782-41.15625-1.253906-59.40625-3.003906-.070313-1.621094-.410157-10.695312-.273438-23.894531 11.355469 1.152343 32.425781 2.789062 60.644531 2.789062 9.386719 0 19.628907-.195312 30.488282-.628906-10.964844 7.996094-21.476563 16.382813-31.453125 24.738281zm-187.382813 14.769532c0-41.097657 16.015625-85.332032 51.199219-85.332032 20.894531.742188 41.4375 5.589844 60.460937 14.265625-1.496093 24.328125-1.066406 44.222657-.855468 51.472657-24.027344-2.8125-40.710938-5.808594-41.035156-5.871094-4.636719-.84375-9.082032 2.230468-9.929688 6.867187-.84375 4.636719 2.226562 9.082031 6.867188 9.929688 33.429687 5.738281 67.199218 9.292969 101.09375 10.640625l-5.523438 4.792968c-4.90625 4.269532-9.648438 8.414063-14.257812 12.359376-22.214844 17.945312-50.675782 26.277343-79.0625 23.148437-37.382813-3.164063-68.957032-22.527344-68.957032-42.273437zm457.933594 46.191406c-25.207031 19.6875-74.992188 21.554687-140.125 5.265625-24.519531-6.128907-43.519531-10.0625-58.027344-12.621094 5.460938-1.707031 10.84375-3.414063 15.992188-5.121094 21.441406-7.167969 60.335937 1.996094 79.9375 8.535157 4.476562 1.488281 9.316406-.933594 10.804687-5.410157 1.488281-4.476562-.933593-9.316406-5.410156-10.804687-9.710937-3.234375-59.734375-18.859375-90.726563-8.53125-43.5625 15.097656-88.730468 25.085937-134.597656 29.769531 8.402344-4.054687 16.253906-9.160156 23.367188-15.195313 4.640625-3.96875 9.429687-8.140624 14.359375-12.441406 31.914062-27.820312 71.679687-62.441406 114.074219-78.832031 19.402343-7.949219 40.445312-11.078125 61.320312-9.121094 15.414062 1.671875 30.722656 4.238281 45.839844 7.679688 31.070312 7.347656 83.125 25.019531 83.125 60.636719 1.15625 17.703124-6.257813 34.886718-19.933594 46.191406zm0 0"/></svg>